<svg id="visual" viewBox="0 0 900 900" width="900" height="900" xmlns="http://www.w3.org/2000/svg" xmlns:xlink="http://www.w3.org/1999/xlink" version="1.1"><path d="M0 571L21.5 577.5C43 584 86 597 128.8 583.8C171.7 570.7 214.3 531.3 257.2 527.3C300 523.3 343 554.7 385.8 574.5C428.7 594.3 471.3 602.7 514.2 600.5C557 598.3 600 585.7 642.8 565.2C685.7 544.7 728.3 516.3 771.2 514.2C814 512 857 536 878.5 548L900 560L900 901L878.5 901C857 901 814 901 771.2 901C728.3 901 685.7 901 642.8 901C600 901 557 901 514.2 901C471.3 901 428.7 901 385.8 901C343 901 300 901 257.2 901C214.3 901 171.7 901 128.8 901C86 901 43 901 21.5 901L0 901Z" fill="#A1258F" stroke-linecap="round" stroke-linejoin="miter"></path></svg>