<svg id="visual" viewBox="0 0 900 900" width="900" height="900" xmlns="http://www.w3.org/2000/svg" xmlns:xlink="http://www.w3.org/1999/xlink" version="1.1"><path d="M0 473L21.5 474C43 475 86 477 128.8 490.2C171.7 503.3 214.3 527.7 257.2 530.5C300 533.3 343 514.7 385.8 504.5C428.7 494.3 471.3 492.7 514.2 503.8C557 515 600 539 642.8 548.8C685.7 558.7 728.3 554.3 771.2 538.8C814 523.3 857 496.7 878.5 483.3L900 470L900 901L878.5 901C857 901 814 901 771.2 901C728.3 901 685.7 901 642.8 901C600 901 557 901 514.2 901C471.3 901 428.7 901 385.8 901C343 901 300 901 257.2 901C214.3 901 171.7 901 128.8 901C86 901 43 901 21.5 901L0 901Z" fill="#A1258F" stroke-linecap="round" stroke-linejoin="miter"></path></svg>